<svg width="12" height="16" viewBox="0 0 12 16" fill="none" xmlns="http://www.w3.org/2000/svg">
<path d="M6.5 1C6.5 0.723858 6.27614 0.5 6 0.5C5.72386 0.5 5.5 0.723858 5.5 1H6.5ZM6 15L5.64645 15.3536C5.84171 15.5488 6.15829 15.5488 6.35355 15.3536L6 15ZM11.3536 10.3536C11.5488 10.1583 11.5488 9.84171 11.3536 9.64645C11.1583 9.45118 10.8417 9.45118 10.6464 9.64645L11.3536 10.3536ZM1.35355 9.64645C1.15829 9.45118 0.841709 9.45118 0.646446 9.64645C0.451184 9.84171 0.451184 10.1583 0.646446 10.3536L1.35355 9.64645ZM5.5 1L5.5 15H6.5L6.5 1H5.5ZM6.35355 15.3536L11.3536 10.3536L10.6464 9.64645L5.64645 14.6464L6.35355 15.3536ZM6.35355 14.6464L1.35355 9.64645L0.646446 10.3536L5.64645 15.3536L6.35355 14.6464Z" fill="black"/>
</svg>
