<svg width="12" height="7" viewBox="0 0 12 7" fill="none" xmlns="http://www.w3.org/2000/svg">
<path d="M1.35265 0.607183C1.15728 0.412032 0.840695 0.412212 0.645544 0.607585C0.450393 0.802959 0.450573 1.11954 0.645946 1.31469L1.35265 0.607183ZM6.00499 5.96094L5.65164 6.31469C5.74546 6.40841 5.87267 6.46101 6.00528 6.46094C6.13788 6.46086 6.26503 6.40811 6.35875 6.31429L6.00499 5.96094ZM11.3531 1.31429C11.5482 1.11892 11.548 0.802334 11.3526 0.607183C11.1573 0.412032 10.8407 0.412212 10.6455 0.607586L11.3531 1.31429ZM0.645946 1.31469L5.65164 6.31469L6.35834 5.60718L1.35265 0.607183L0.645946 1.31469ZM6.35875 6.31429L11.3531 1.31429L10.6455 0.607586L5.65124 5.60759L6.35875 6.31429Z" fill="black"/>
</svg>
