<svg width="18" height="16" viewBox="0 0 18 16" fill="none" xmlns="http://www.w3.org/2000/svg">
<path d="M0.5 10V2C0.5 1.44772 0.947715 1 1.5 1H16.5C17.0523 1 17.5 1.44772 17.5 2V10C17.5 10.5523 17.0523 11 16.5 11H14.5898C14.5327 11 14.4783 11.0244 14.4403 11.0671L10.6747 15.3034C10.6137 15.3721 10.5 15.3289 10.5 15.237V11.2C10.5 11.0895 10.4105 11 10.3 11H1.5C0.947715 11 0.5 10.5523 0.5 10Z" stroke="#444444"/>
<path d="M4 4H7H10M12.5 4H12" stroke="#444444" stroke-linecap="round" stroke-linejoin="round"/>
</svg>
