<svg width="20" height="16" viewBox="0 0 20 16" fill="none" xmlns="http://www.w3.org/2000/svg">
<path d="M19.335 7.40685L19.8016 7.22714L19.335 7.40685ZM19.335 8.59315L18.8684 8.41344L19.335 8.59315ZM0.664921 7.40685L0.198333 7.22714L0.664921 7.40685ZM0.66492 8.59315L0.198333 8.77286L0.66492 8.59315ZM1.13151 7.58656C2.5031 4.02545 5.95723 1.5 9.99997 1.5V0.5C5.53002 0.5 1.71363 3.29293 0.198333 7.22714L1.13151 7.58656ZM9.99997 1.5C14.0427 1.5 17.4968 4.02546 18.8684 7.58656L19.8016 7.22714C18.2863 3.29294 14.4699 0.5 9.99997 0.5V1.5ZM18.8684 8.41344C17.4968 11.9746 14.0427 14.5 9.99997 14.5V15.5C14.4699 15.5 18.2863 12.7071 19.8016 8.77287L18.8684 8.41344ZM9.99997 14.5C5.95723 14.5 2.5031 11.9745 1.13151 8.41344L0.198333 8.77286C1.71363 12.7071 5.53002 15.5 9.99997 15.5V14.5ZM18.8684 7.58656C18.9709 7.8525 18.9709 8.14751 18.8684 8.41344L19.8016 8.77287C19.9931 8.2756 19.9931 7.72441 19.8016 7.22714L18.8684 7.58656ZM0.198333 7.22714C0.0068059 7.72441 0.00680554 8.27559 0.198333 8.77286L1.13151 8.41344C1.02908 8.1475 1.02908 7.8525 1.13151 7.58656L0.198333 7.22714Z" fill="#7e000e"/>
<circle cx="10" cy="8" r="3" stroke="#7e000e" stroke-linecap="round" stroke-linejoin="round"/>
</svg>
