<svg width="19" height="19" viewBox="0 0 19 19" fill="none" xmlns="http://www.w3.org/2000/svg">
<path d="M1.25 6.31372L1.10083 5.83649C0.910122 5.8961 0.773212 6.06353 0.752654 6.26227C0.732095 6.46102 0.831836 6.65293 1.00631 6.75031L1.25 6.31372ZM18.25 1L18.7257 1.15391C18.7833 0.976087 18.7368 0.781023 18.6053 0.64821C18.4738 0.515397 18.2792 0.467011 18.1008 0.52277L18.25 1ZM12.75 18L12.3088 18.2353C12.4032 18.4123 12.5943 18.5158 12.7942 18.498C12.9941 18.4803 13.164 18.3448 13.2257 18.1539L12.75 18ZM1.39917 6.79095L18.3992 1.47723L18.1008 0.52277L1.10083 5.83649L1.39917 6.79095ZM17.7743 0.84609L12.2743 17.8461L13.2257 18.1539L18.7257 1.15391L17.7743 0.84609ZM13.1912 17.7647L9.19117 10.2647L8.30882 10.7353L12.3088 18.2353L13.1912 17.7647ZM8.99369 10.0634L1.49369 5.87713L1.00631 6.75031L8.5063 10.9366L8.99369 10.0634ZM9.10355 10.8536L18.6036 1.35355L17.8964 0.646447L8.39644 10.1464L9.10355 10.8536Z" fill="white"/>
</svg>
