<svg width="34" height="34" viewBox="0 0 34 34" fill="none" xmlns="http://www.w3.org/2000/svg">
<path fill-rule="evenodd" clip-rule="evenodd" d="M33.81 11.1599C33.81 14.8579 32.4922 17.7175 29.5867 20.6231C28.062 22.1477 26.4908 23.3772 24.9278 24.1328C23.5934 24.8336 22.3675 25.1227 21.2499 25.0001C20.4399 24.9101 19.6899 24.4151 18.9999 23.5151C18.3099 22.4951 17.8899 21.2201 17.7399 19.6901C17.1699 20.4701 16.5849 21.1901 15.9849 21.8501C15.4149 22.4801 14.7999 23.0651 14.1399 23.6051C12.9399 24.5651 11.9499 25.0451 11.1699 25.0451C10.0599 25.0451 9.50488 24.3401 9.50488 22.9301C9.50488 21.7301 9.92488 20.4851 10.7649 19.1951C12.7149 16.2251 14.9049 14.1701 17.3349 13.0301C18.3849 12.5501 19.3599 12.3101 20.2599 12.3101C20.4999 12.3101 20.7549 12.3551 21.0249 12.4451C21.3249 12.5051 21.5949 12.6101 21.8349 12.7601C22.1049 12.8801 22.3149 13.0301 22.4649 13.2101C22.6449 13.3901 22.7349 13.6001 22.7349 13.8401C22.7349 13.9301 22.6749 14.0201 22.5549 14.1101C22.4649 14.1701 22.3449 14.2301 22.1949 14.2901C22.0749 14.3201 21.9549 14.3651 21.8349 14.4251C21.7149 14.4851 21.6549 14.5301 21.6549 14.5601C20.5449 16.5701 19.9899 18.4901 19.9899 20.3201C19.9899 22.6001 20.8749 23.7401 22.6449 23.7401C23.1653 23.7401 23.7222 23.6238 24.3154 23.3913C25.6604 22.5275 27.1197 21.0493 28.5 19.5C30.8332 16.8586 31.6308 15.1881 31.6308 12.4146C31.6308 8.2764 30.5522 5.34884 28.3951 3.63193C26.7222 2.26721 24.1909 1.58484 20.8011 1.58484C15.9145 1.58484 11.5561 3.71998 7.72611 7.99025C4.07216 12.0844 2.24519 16.4207 2.24519 20.9992C2.24519 24.6091 3.67595 27.4926 6.53748 29.6498C9.13486 31.6308 12.3266 32.6213 16.1126 32.6213C22.1878 32.6213 26.7882 30.4202 29.9139 26.0178C30.3541 25.7097 30.7063 25.5556 30.9705 25.5556C31.2786 25.5556 31.4547 25.6877 31.4987 25.9518C29.5617 28.5052 27.0524 30.4862 23.9707 31.895C21.1092 33.1716 18.0936 33.81 14.9239 33.81C10.7417 33.81 7.26386 32.7754 4.49039 30.7063C1.4968 28.4171 0 25.3575 0 21.5274C0 16.4648 2.20117 11.6662 6.60351 7.13179C11.27 2.37726 16.5088 0 22.3199 0C25.6656 0 28.3731 0.880468 30.4422 2.6414C32.6874 4.62246 33.81 7.46197 33.81 11.1599ZM12.5649 19.1051C14.3649 15.5651 16.5099 13.8251 18.9999 13.8851C18.4299 15.0251 18.0399 16.3451 17.8299 17.8451C17.3499 19.1651 16.3299 20.4851 14.7699 21.8051C13.8999 22.5251 13.1949 22.8851 12.6549 22.8851C12.0849 22.8851 11.7999 22.4801 11.7999 21.6701C11.7999 20.9201 12.0549 20.0651 12.5649 19.1051Z" fill="#7E000E"/>
</svg>
