<svg width="20" height="20" viewBox="0 0 20 20" fill="none" xmlns="http://www.w3.org/2000/svg">
<path d="M18.2926 19.7068C18.6829 20.0975 19.3161 20.0978 19.7068 19.7074C20.0975 19.3171 20.0978 18.6839 19.7074 18.2932L18.2926 19.7068ZM14.6588 14.6549L15.3662 13.9481C15.1781 13.7598 14.9228 13.6543 14.6566 13.6549C14.3905 13.6555 14.1356 13.7621 13.9483 13.9512L14.6588 14.6549ZM15.4803 11.6525C15.2708 12.1635 15.5153 12.7476 16.0264 12.957C16.5374 13.1664 17.1215 12.9219 17.3309 12.4109L15.4803 11.6525ZM9 16C5.13401 16 2 12.866 2 9H0C0 13.9706 4.02944 18 9 18V16ZM2 9C2 5.13401 5.13401 2 9 2V0C4.02944 0 0 4.02944 0 9H2ZM9 2C12.866 2 16 5.13401 16 9H18C18 4.02944 13.9706 0 9 0V2ZM19.7074 18.2932L15.3662 13.9481L13.9514 15.3617L18.2926 19.7068L19.7074 18.2932ZM13.9483 13.9512C12.6819 15.2298 10.95 16 9 16V18C11.4961 18 13.736 17.0076 15.3693 15.3586L13.9483 13.9512ZM16 9C16 9.94072 15.815 10.8357 15.4803 11.6525L17.3309 12.4109C17.7625 11.3576 18 10.2053 18 9H16Z" fill="black"/>
</svg>
