<svg width="14" height="12" viewBox="0 0 14 12" fill="none" xmlns="http://www.w3.org/2000/svg">
<path d="M10.3703 9.87313V10.5834C10.3703 10.896 10.1004 11.0806 9.7879 11.0806H0.511411C0.19888 11.0806 0 10.9102 0 10.5834L0 3.55149C0 3.23896 0.19888 2.95484 0.511411 2.95484H2.17351C2.48604 2.95484 2.74175 3.21054 2.74175 3.52307C2.74175 3.8356 2.48604 4.09131 2.17351 4.09131H1.13648V9.94416H9.23386V9.87313C9.23386 9.5606 9.48957 9.30489 9.8021 9.30489C10.1288 9.29069 10.3703 9.5606 10.3703 9.87313ZM12.899 4.57432L9.37592 8.16842C9.20545 8.33889 8.96395 8.38151 8.75086 8.29628C8.53777 8.21104 8.39571 7.99795 8.39571 7.77065V6.2222C7.25924 6.19379 4.5317 6.30744 3.53728 8.05477C3.43784 8.23945 3.23896 8.35309 3.04008 8.35309C2.99746 8.35309 2.94063 8.3531 2.89802 8.33889C2.64231 8.26786 2.47184 8.04056 2.47184 7.78486C2.47184 7.68542 2.47183 5.4977 4.11972 3.86402C5.15676 2.81278 6.54894 2.24454 8.39571 2.1451V0.568239C8.39571 0.340944 8.53777 0.127853 8.75086 0.0426169C8.96395 -0.0426187 9.21966 2.563e-06 9.37592 0.170474L12.9132 3.76458C13.1263 3.99187 13.1263 4.34702 12.899 4.57432ZM11.6773 4.16234L9.51798 1.97463V2.67072C9.51798 2.98325 9.27648 3.23895 8.94975 3.23895C7.18821 3.23895 5.83864 3.70775 4.91525 4.64535C4.48908 5.07153 4.20496 5.54032 4.02028 5.99491C5.35564 5.19938 7.04615 5.05731 8.08319 5.05731C8.62301 5.05731 8.97816 5.09994 9.02078 5.09994C9.30489 5.12835 9.51798 5.38406 9.51798 5.66818V6.36426L11.6773 4.16234Z" fill="black"/>
<path d="M11.6773 4.16234L9.51798 1.97463V2.67072C9.51798 2.98325 9.27648 3.23895 8.94975 3.23895C7.18821 3.23895 5.83864 3.70775 4.91525 4.64535C4.48908 5.07153 4.20496 5.54032 4.02028 5.99491C5.35564 5.19938 7.04615 5.05731 8.08319 5.05731C8.62301 5.05731 8.97816 5.09994 9.02078 5.09994C9.30489 5.12835 9.51798 5.38406 9.51798 5.66818V6.36426L11.6773 4.16234Z" fill="black"/>
</svg>
