<svg width="15" height="14" viewBox="0 0 15 14" fill="none" xmlns="http://www.w3.org/2000/svg">
<path fill-rule="evenodd" clip-rule="evenodd" d="M10.6675 12.942C11.5063 13.309 11.8208 12.5401 11.8208 12.5401L14.04 1.39168C14.0226 0.640292 13.0091 1.09462 13.0091 1.09462L0.585011 5.96988C0.585011 5.96988 -0.00910739 6.17957 0.0433148 6.54653C0.095737 6.91348 0.567537 7.08822 0.567537 7.08822L3.69539 8.13667C3.69539 8.13667 4.63899 11.2296 4.83121 11.8237C5.00595 12.4003 5.16322 12.4178 5.16322 12.4178C5.33796 12.4877 5.49522 12.3654 5.49522 12.3654L7.52221 10.5306L10.6675 12.942ZM11.2092 3.36622C11.2092 3.36622 11.6461 3.10411 11.6286 3.36622C11.6286 3.36622 11.6985 3.40117 11.4714 3.64581C11.2617 3.8555 6.31651 8.29391 5.65249 8.88803C5.60007 8.92298 5.56512 8.9754 5.56512 9.04529L5.37291 10.6879C5.33796 10.8626 5.1108 10.8801 5.05837 10.7228L4.23709 8.0318C4.20215 7.92695 4.23709 7.80464 4.34194 7.73474L11.2092 3.36622Z" fill="black"/>
</svg>
