<svg width="16" height="12" viewBox="0 0 16 12" fill="none" xmlns="http://www.w3.org/2000/svg">
<path fill-rule="evenodd" clip-rule="evenodd" d="M13.869 1.06979C14.5115 1.24277 15.0181 1.74935 15.191 2.39186C15.5123 3.56566 15.4999 6.0121 15.4999 6.0121C15.4999 6.0121 15.4999 8.4462 15.191 9.62C15.0181 10.2625 14.5115 10.7691 13.869 10.9421C12.6952 11.251 7.99997 11.251 7.99997 11.251C7.99997 11.251 3.31712 11.251 2.13097 10.9297C1.48846 10.7567 0.981876 10.2501 0.808895 9.60764C0.5 8.44619 0.5 5.99975 0.5 5.99975C0.5 5.99975 0.5 3.56566 0.808895 2.39186C0.981876 1.74935 1.50082 1.23041 2.13097 1.05743C3.30477 0.748535 7.99997 0.748535 7.99997 0.748535C7.99997 0.748535 12.6952 0.748535 13.869 1.06979ZM10.4093 5.99975L6.50491 8.2485L6.50491 3.75099L10.4093 5.99975Z" fill="black"/>
</svg>
